<svg width="83" height="83" viewBox="0 0 83 83" fill="none" xmlns="http://www.w3.org/2000/svg">
<path d="M33.0427 55.4575C32.174 55.4488 31.3582 55.036 30.8373 54.34L22.4619 43.1647C22.0307 42.3696 22.0114 41.4148 22.4089 40.6029C22.8071 39.7903 23.5736 39.2216 24.4655 39.0756C25.3578 38.9297 26.2651 39.2247 26.9009 39.8682L33.5731 48.7523L78.2419 17.1534C78.8245 16.5753 79.6321 16.2822 80.4498 16.3533C81.2674 16.4243 82.0127 16.8522 82.487 17.5225C82.9613 18.1929 83.1164 19.0379 82.912 19.8331C82.7076 20.6289 82.1636 21.2936 81.4245 21.6516L34.7185 54.8151C34.2462 55.2073 33.6573 55.4337 33.0434 55.4574L33.0427 55.4575Z" fill="#003366"/>
<path d="M64.5899 37.1015C66.6899 43.1899 66.8034 49.7891 64.9133 55.9462C63.0232 62.1033 59.2274 67.5 54.0739 71.3583C48.9203 75.2173 42.6756 77.3376 36.2399 77.4144C29.8038 77.4911 23.5104 75.5205 18.2671 71.7855C13.0232 68.0512 9.09966 62.7462 7.06372 56.6358C5.02779 50.5257 4.98359 43.9259 6.93847 37.7895C8.89272 31.6525 12.7446 26.2956 17.9386 22.4915C23.1322 18.6875 29.3994 16.6326 35.8349 16.6232C40.273 16.6164 44.6588 17.5892 48.6784 19.4726C52.6984 21.356 56.2536 24.1036 59.0904 27.5191L63.753 24.25C59.377 18.9218 53.5629 14.965 47.0022 12.8516V2.79382C47.0022 2.05296 46.7081 1.34202 46.1846 0.81819C45.6612 0.294357 44.9507 0 44.2104 0H27.6C26.8597 0 26.1493 0.294357 25.6258 0.81819C25.1024 1.34202 24.8082 2.05296 24.8082 2.79382V12.8516C17.9602 15.0823 11.9404 19.3209 7.52937 25.0178C3.11801 30.7146 0.519405 37.6063 0.0700053 44.7996C-0.379299 51.9932 1.3419 59.1548 5.01053 65.3574C8.67847 71.5593 14.1244 76.5152 20.6414 79.5822C27.1586 82.6485 34.4458 83.685 41.5592 82.5563C48.672 81.4269 55.282 78.1853 60.5306 73.2513C65.7795 68.3166 69.4258 61.9176 70.9967 54.8839C72.5671 47.85 71.9888 40.5069 69.3379 33.8057L64.5899 37.1015Z" fill="#003366"/>
<path d="M62.2444 38.6948L53.869 44.5337C54.3352 44.3024 54.8599 44.2144 55.3765 44.2824H60.0945C61.0922 44.2824 62.0138 44.815 62.5123 45.6793C63.0109 46.5437 63.0109 47.6088 62.5123 48.4731C62.0138 49.3375 61.0921 49.8701 60.0945 49.8701H55.3765C54.6362 49.8701 53.9257 49.5757 53.4023 49.0519C52.8788 48.528 52.5847 47.8171 52.5847 47.0762C52.5878 46.3572 52.8676 45.6662 53.3661 45.1487L36.4191 57.1059H36.4197C35.4943 57.7781 34.3801 58.1399 33.2373 58.1399C31.4992 58.1224 29.8684 57.2961 28.8259 55.9048L20.4505 44.8692C19.5812 43.6887 19.2104 42.2138 19.4179 40.762C19.6017 39.3058 20.3801 37.9913 21.5673 37.13C22.7432 36.2644 24.2107 35.8934 25.6559 36.0967C27.1017 36.3006 28.4097 37.0627 29.3009 38.2195L34.3542 44.9809L56.8561 29.0842H56.8555C52.4141 23.9519 46.2273 20.6516 39.4937 19.8234C32.7597 18.9952 25.9584 20.6977 20.4073 24.601C14.8563 28.5043 10.9502 34.3307 9.44642 40.9504C7.94267 47.5702 8.94788 54.5148 12.2676 60.4353C15.5873 66.3566 20.9852 70.8342 27.4149 73C33.8448 75.1664 40.8498 74.8671 47.0708 72.16C53.2931 69.4535 58.2896 64.5319 61.0928 58.3493C63.8957 52.1661 64.3059 45.1621 62.2437 38.6935L62.2444 38.6948ZM33.0422 22.9378C33.0422 21.9394 33.5744 21.0171 34.4381 20.5182C35.3018 20.0193 36.3662 20.0193 37.2299 20.5182C38.0936 21.0171 38.6258 21.9394 38.6258 22.9378V27.6592C38.6258 28.6576 38.0936 29.5799 37.2299 30.0788C36.3662 30.5777 35.3018 30.5777 34.4381 30.0788C33.5744 29.5799 33.0422 28.6576 33.0422 27.6592V22.9378ZM16.5706 49.8703H11.8246C10.8269 49.8703 9.90524 49.3377 9.40671 48.4733C8.90817 47.609 8.90817 46.5439 9.40671 45.6795C9.90524 44.8152 10.8269 44.2826 11.8246 44.2826H16.5706C17.5683 44.2826 18.4899 44.8152 18.9885 45.6795C19.487 46.5439 19.487 47.609 18.9885 48.4733C18.4899 49.3377 17.5683 49.8703 16.5706 49.8703ZM38.6258 71.1033C38.6258 72.1017 38.0936 73.024 37.2299 73.5229C36.3662 74.0218 35.3018 74.0218 34.4381 73.5229C33.5744 73.024 33.0422 72.1017 33.0422 71.1033V66.3538C33.0422 65.3554 33.5744 64.4331 34.4381 63.9342C35.3018 63.4353 36.3662 63.4353 37.2299 63.9342C38.0936 64.4331 38.6258 65.3554 38.6258 66.3538V71.1033Z" fill="#003366"/>
</svg>
