<svg width="83" height="83" viewBox="0 0 83 83" fill="none" xmlns="http://www.w3.org/2000/svg">
<path d="M50.6397 41.7188C48.1908 43.8175 44.955 45.0418 41.5441 45.0418C38.046 45.0418 34.8972 43.7302 32.4485 41.6309C28.1627 44.7794 25.1892 50.0274 24.6645 56.2368C24.5772 56.9366 24.8395 57.6363 25.3642 58.2483C25.8889 58.7729 26.5886 59.0353 27.2884 59.0353H55.888C56.5878 59.0353 57.2875 58.7729 57.8122 58.2483C58.3368 57.7236 58.5992 57.0238 58.5119 56.2368C58.0745 51.8638 56.4127 47.6658 53.7894 44.5172C52.7388 43.4679 51.6897 42.5058 50.6397 41.7188Z" fill="#003366"/>
<path d="M10.1458 31.5732C10.5832 31.7483 10.9328 31.8355 11.3702 31.8355C12.5946 31.8355 13.7318 31.1357 14.2564 29.9114C17.2299 22.8272 22.8274 17.3169 29.9119 14.2559C31.4859 13.5561 32.2735 11.7198 31.5738 10.0579C30.874 8.48394 29.0377 7.69632 27.3758 8.39601C18.8042 12.0694 12.0702 18.8034 8.39683 27.375C7.78431 29.0369 8.48408 30.8731 10.1459 31.573L10.1458 31.5732Z" fill="#003366"/>
<path d="M53.1763 14.2558C60.2604 17.2293 65.7708 22.8268 68.8317 29.9113C69.3564 31.1357 70.4937 31.8354 71.718 31.8354C72.1554 31.8354 72.5928 31.7482 72.9424 31.5731C74.5164 30.8733 75.304 29.037 74.6043 27.3751C71.0182 18.8035 64.2842 12.0695 55.7128 8.39614C54.0508 7.69637 52.2146 8.48338 51.5148 10.058C50.815 11.7193 51.602 13.5562 53.1767 14.256L53.1763 14.2558Z" fill="#003366"/>
<path d="M29.9119 68.8321C22.8277 65.8585 17.3173 60.2611 14.2564 53.1766C13.5566 51.6026 11.7203 50.815 10.0584 51.5147C8.48443 52.2144 7.69681 54.0507 8.3965 55.7126C12.0698 64.2842 18.8039 71.0183 27.3755 74.6916C27.8129 74.8667 28.1625 74.954 28.5999 74.954C29.8243 74.954 30.9615 74.2542 31.4861 73.0298C32.2731 71.3685 31.4861 69.5317 29.9115 68.8319L29.9119 68.8321Z" fill="#003366"/>
<path d="M72.9431 51.5148C71.2812 50.815 69.445 51.602 68.7451 53.1767C65.7716 60.2609 60.1741 65.7712 53.0897 68.8322C51.5157 69.532 50.7281 71.3682 51.4277 73.0301C51.9524 74.2546 53.0897 74.9543 54.314 74.9543C54.7514 74.9543 55.1888 74.867 55.5384 74.6919C64.2845 71.0186 71.0185 64.2846 74.6923 55.713C75.3048 54.051 74.605 52.2148 72.9432 51.515L72.9431 51.5148Z" fill="#003366"/>
<path d="M79.9389 38.395H68.8312C67.0821 38.395 65.6826 39.7945 65.6826 41.5436C65.6826 43.2927 67.0821 44.6922 68.8312 44.6922H79.8511C81.6002 44.6922 82.9997 43.2927 82.9997 41.5436C83.0003 39.7945 81.688 38.395 79.9389 38.395Z" fill="#003366"/>
<path d="M17.4049 41.5436C17.4049 39.7945 16.0053 38.395 14.2563 38.395H3.14859C1.39953 38.395 0 39.7945 0 41.5436C0 43.2927 1.39951 44.6922 3.14859 44.6922H14.1685C16.0055 44.6922 17.4049 43.2927 17.4049 41.5436Z" fill="#003366"/>
<path d="M50.7274 31.2236C50.7274 36.2952 46.6155 40.4065 41.5439 40.4065C36.4723 40.4065 32.3604 36.2952 32.3604 31.2236C32.3604 26.1513 36.4723 22.04 41.5439 22.04C46.6155 22.04 50.7274 26.1513 50.7274 31.2236Z" fill="#003366"/>
<path d="M41.5441 17.4049C43.2932 17.4049 44.6927 16.0053 44.6927 14.2563V3.14859C44.6927 1.39953 43.2932 0 41.5441 0C39.795 0 38.3955 1.39951 38.3955 3.14859V14.1685C38.3955 16.0055 39.795 17.4049 41.5441 17.4049Z" fill="#003366"/>
<path d="M41.5441 65.6826C39.795 65.6826 38.3955 67.0821 38.3955 68.8312V79.8511C38.3955 81.6002 39.795 82.9997 41.5441 82.9997C43.2932 82.9997 44.6927 81.6002 44.6927 79.8511V68.8312C44.6927 67.0821 43.2932 65.6826 41.5441 65.6826Z" fill="#003366"/>
</svg>
