<svg width="34" height="63" viewBox="0 0 34 63" fill="none" xmlns="http://www.w3.org/2000/svg">
<path d="M25.794 14.685C25.0036 17.3433 24.3571 17.4871 23.926 17.2715C23.4228 20.1452 21.8426 23.8817 16.8128 24.0971C11.7112 23.7377 10.0588 19.8581 9.62788 16.9122C9.19686 16.9122 8.69368 16.3373 8.11878 14.2539C7.32842 11.4517 8.19045 11.0208 8.90915 11.0924C8.40596 9.6555 8.40596 8.14641 8.69364 6.85338C9.05299 5.27269 9.91502 3.97966 10.8492 3.04536C11.4241 2.39883 12.1423 1.82399 12.861 1.39296C13.4359 0.961936 14.0824 0.602587 14.8011 0.38709C15.3759 0.171581 15.9508 0.099911 16.5973 0.0277409C18.5374 -0.116099 19.9742 0.31492 21.0519 0.961936C22.6325 1.82397 23.2075 2.97372 23.2075 2.97372C23.2075 2.97372 27.1593 3.2609 25.4347 11.5955C26.0095 11.7388 26.441 12.5292 25.794 14.6848L25.794 14.685ZM26.5127 35.665L28.5245 37.6767C28.8838 38.0361 28.9555 38.6109 28.6683 39.042L27.0159 41.3414C27.5907 42.2756 28.0217 43.2815 28.2373 44.3591L31.0394 44.8623C31.5426 44.934 31.9014 45.3655 31.9014 45.9398V48.6702C31.9014 48.9574 31.7576 49.2451 31.6142 49.3889C31.4704 49.5328 31.2549 49.6761 31.0394 49.6761L28.2373 50.1793C27.9501 51.2568 27.5186 52.2627 27.0159 53.197L28.6683 55.4964C28.9555 55.9274 28.8838 56.5023 28.5245 56.8617L26.5127 58.8735C26.1533 59.2328 25.5785 59.3045 25.1474 59.0173L22.848 57.3649C21.9138 57.9398 20.9079 58.2991 19.902 58.5863L19.3988 61.3884C19.3272 61.6039 19.255 61.8194 19.1117 61.9633C18.8961 62.1788 18.6806 62.2504 18.393 62.2504H15.6625C15.1594 62.2504 14.7284 61.8911 14.585 61.3884L14.154 58.658C13.1481 58.3708 12.0706 58.0115 11.1363 57.4366L8.83689 59.089C8.40587 59.3762 7.83103 59.3045 7.47163 58.9452L5.45985 56.9334C5.1005 56.574 5.02882 55.9992 5.316 55.5681L6.89669 53.2687C6.32183 52.3345 5.89082 51.3286 5.60366 50.251L2.80153 49.7478C2.29834 49.6762 1.9395 49.2446 1.9395 48.6703V45.9399C1.9395 45.6527 2.08334 45.365 2.22668 45.2212C2.37052 45.0774 2.58602 44.934 2.80153 44.934L5.53194 44.503C5.81912 43.4971 6.17847 42.4196 6.75331 41.4853L5.10091 39.1859C4.81373 38.7549 4.8854 38.18 5.24474 37.8206L7.25653 35.8088C7.61587 35.4495 8.19072 35.3778 8.62179 35.665L10.9212 37.2457C11.8554 36.6708 12.933 36.2398 14.0105 35.9527L14.5137 33.1505C14.5853 32.935 14.6575 32.7195 14.8009 32.5757C15.0164 32.3602 15.2319 32.2885 15.5196 32.2885H18.25C18.7531 32.2885 19.1842 32.6479 19.3275 33.1505L19.8307 35.9527C20.9082 36.2398 21.9141 36.6714 22.8484 37.174L25.1478 35.5216C25.5783 35.3056 26.1532 35.3778 26.5125 35.665L26.5127 35.665ZM20.9084 42.5627C18.3218 40.4071 14.5138 40.6948 12.2866 43.2814C10.131 45.868 10.4187 49.676 13.0053 51.9032C15.5919 54.0588 19.3999 53.7712 21.6271 51.1845C23.8543 48.598 23.4951 44.7178 20.9084 42.5627ZM17.9625 30.4918C21.5549 25.4625 17.0283 25.6063 17.0283 25.6063C17.0283 25.6063 12.4299 25.3908 16.0941 30.4918H17.9625ZM21.1956 32.9346L21.4827 34.587C21.9138 34.7308 22.3448 34.9463 22.7041 35.0901L24.0694 34.0843C25.1469 33.2939 26.7277 33.4378 27.7336 34.2998L28.8828 35.449C30.8228 34.0837 32.547 32.4313 33.9843 30.4913C33.6972 28.8389 32.9068 27.0426 30.8228 26.5394C26.5116 25.4619 23.0631 23.0187 23.0631 23.0187L20.4048 31.4251C20.8363 31.7854 21.0523 32.2881 21.1957 32.9347L21.1956 32.9346ZM4.95762 35.5934L6.03515 34.5158C7.04102 33.51 8.62173 33.3661 9.77144 34.2286L11.1367 35.1628C11.5677 34.9473 11.9987 34.7318 12.502 34.588L12.7892 32.9356C12.8608 32.3607 13.1485 31.858 13.5795 31.4265L10.9212 23.0201C10.9212 23.0201 7.40048 25.4629 3.1615 26.5409C1.00589 27.1157 0.215548 28.9119 0 30.6365C1.29354 32.5756 3.01767 34.228 4.95773 35.5932L4.95762 35.5934Z" fill="#003366"/>
</svg>
