<svg width="94" height="80" viewBox="0 0 94 80" fill="none" xmlns="http://www.w3.org/2000/svg">
<path d="M74.6273 64.2013H93.8174V58.5295C93.8174 55.5445 91.3654 53.0923 88.3802 53.0923H80.0858C77.1008 53.0923 74.6486 55.5443 74.6486 58.5295V64.2013H74.6273ZM84.2224 36.6106C88.0178 36.6106 91.0882 39.681 91.0882 43.4764C91.0882 47.2718 88.0178 50.3422 84.2224 50.3422C80.427 50.3422 77.3566 47.2718 77.3566 43.4764C77.3566 39.681 80.427 36.6106 84.2224 36.6106ZM0 58.039H19.1901V52.3673C19.1901 49.3823 16.738 46.9088 13.7316 46.9088H5.45848C2.45203 46.9088 0 49.3608 0 52.3673V58.039ZM9.59503 30.4269C13.3904 30.4269 16.4608 33.4973 16.4608 37.2927C16.4608 41.0881 13.3904 44.1585 9.59503 44.1585C5.79963 44.1585 2.72924 41.0881 2.72924 37.2927C2.72924 33.5188 5.79963 30.4269 9.59503 30.4269ZM47.0148 58.6784C48.4221 58.6784 48.4221 60.8108 47.0148 60.8108H29.8078C28.4005 60.8108 28.4005 58.6784 29.8078 58.6784H47.0148ZM56.3539 51.0025C57.7612 51.0025 57.7612 53.1348 56.3539 53.1348H29.7867C28.3794 53.1348 28.3794 51.0025 29.7867 51.0025H56.3539ZM64.0299 35.6717C65.4372 35.6717 65.4372 37.8041 64.0299 37.8041H46.8228C45.4156 37.8041 45.4156 35.6717 46.8228 35.6717H64.0299ZM64.0299 43.3477C65.4372 43.3477 65.4372 45.48 64.0299 45.48H37.7824C36.3751 45.48 36.3751 43.3477 37.7824 43.3477H64.0299ZM67.3988 29.7442H26.4173C23.6027 29.7442 21.3 32.0257 21.3 34.8403V64.0295C21.3 66.8441 23.6027 69.1256 26.4173 69.1256H35.2019C35.5857 69.1256 35.9482 69.3175 36.1401 69.68L41.7265 80L47.2916 69.7441C47.4622 69.3816 47.8246 69.1258 48.2511 69.1258H67.3984C70.2131 69.1258 72.4945 66.8443 72.4945 64.0297V34.8405C72.4945 32.0258 70.1918 29.7444 67.3984 29.7444L67.3988 29.7442ZM37.8041 27.5907H56.9941V21.9189C56.9941 18.9339 54.5421 16.4817 51.5356 16.4817H43.2413C40.2348 16.4817 37.7828 18.9337 37.7828 21.9189V27.5907H37.8041ZM47.3991 0C51.1945 0 54.2649 3.07039 54.2649 6.86579C54.2649 10.6612 51.1945 13.7316 47.3991 13.7316C43.6037 13.7316 40.5333 10.6612 40.5333 6.86579C40.5333 3.07039 43.6037 0 47.3991 0Z" fill="#003366"/>
</svg>
