<svg width="85" height="90" viewBox="0 0 85 90" fill="none" xmlns="http://www.w3.org/2000/svg">
<path fill-rule="evenodd" clip-rule="evenodd" d="M29.0783 74.3027V85.3449C29.0783 87.9141 31.1547 90 33.7202 90H51.2699C53.8354 90 55.9118 87.9141 55.9118 85.3449V74.3027C56.2275 74.1102 56.5183 73.8809 56.7843 73.6169C57.6539 72.742 58.143 71.5595 58.143 70.3245V64.847C65.2421 59.8844 69.8903 51.6325 69.8903 42.3038C69.8903 27.1407 57.6139 14.8323 42.4965 14.8323C27.3763 14.8323 15.1028 27.1407 15.1028 42.3038C15.1028 51.6327 19.7483 59.8817 26.8472 64.847V70.3245C26.8472 71.5596 27.3362 72.7421 28.2052 73.6169C28.4719 73.8809 28.7626 74.1101 29.0783 74.3027ZM52.8168 82.4894H32.1729V85.3449C32.1729 86.2011 32.863 86.8966 33.7202 86.8966H51.2727C52.1272 86.8966 52.8172 86.2011 52.8172 85.3449L52.8168 82.4894ZM52.8168 74.9795H32.1729V79.386H52.8168V74.9795ZM49.0598 71.876H53.5007C53.9123 71.876 54.3054 71.7112 54.5962 71.4195C54.887 71.1314 55.048 70.7372 55.048 70.3243V64.024C55.048 63.4997 55.3112 63.0092 55.7505 62.7238C62.3978 58.3728 66.7952 50.8505 66.7952 42.3033C66.7952 28.8533 55.9052 17.9353 42.4961 17.9353C29.0841 17.9353 18.197 28.8533 18.197 42.3033C18.197 50.8501 22.5917 58.3724 29.2388 62.7238C29.6781 63.0092 29.9413 63.4997 29.9413 64.024V70.3243C29.9413 70.7372 30.105 71.1314 30.3931 71.4195C30.6839 71.7112 31.0769 71.876 31.4886 71.876H35.9447V63.9838H35.4059C34.5522 63.9838 33.8586 63.289 33.8586 62.4321V57.1999C33.8586 56.4767 34.3511 55.8685 35.0191 55.698L32.0391 48.6441C31.8657 48.2402 31.8754 47.7782 32.0605 47.3805L39.1629 32.1924C39.4165 31.6493 39.9642 31.2988 40.5652 31.2988H44.439C45.0399 31.2988 45.5843 31.6493 45.8378 32.1924L52.9403 47.3805C53.1261 47.7782 53.1351 48.2402 52.9651 48.6441L49.9817 55.698C50.6504 55.8685 51.1422 56.4767 51.1422 57.1999V62.4321C51.1422 63.289 50.4521 63.9838 49.5949 63.9838H49.0595L49.0598 71.876ZM39.0395 63.9838V71.876H45.9651V63.9838H39.0395ZM13.0693 71.2303L17.4916 67.2457C18.1257 66.6715 18.1782 65.6906 17.609 65.0547C17.0398 64.4153 16.0583 64.3627 15.4242 64.937L10.9992 68.9216C10.3644 69.4924 10.3119 70.4733 10.8846 71.1126C11.4538 71.7485 12.4318 71.8012 13.0693 71.2303ZM75.1601 67.4564L70.5617 63.6796C69.8992 63.1365 68.9245 63.2328 68.383 63.8972C67.8415 64.558 67.9409 65.5355 68.5999 66.0786L73.1984 69.8587C73.8608 70.4018 74.8355 70.3021 75.377 69.6412C75.9186 68.9804 75.8226 67.9995 75.1601 67.4564ZM48.0475 58.7516H36.9532V60.8804H48.0475V58.7516ZM35.1551 48.0698L38.3617 55.6482H46.6397C47.5806 53.4293 49.8456 48.0698 49.8456 48.0698L44.0494 35.6748V47.5883C44.0494 48.4418 43.3559 49.14 42.5021 49.14C41.6483 49.14 40.9548 48.4418 40.9548 47.5883V35.6714L35.1551 48.0698ZM1.54732 44.1808H7.49203C8.34582 44.1808 9.03935 43.486 9.03935 42.6291C9.03935 41.7729 8.34582 41.0774 7.49203 41.0774H1.54732C0.692846 41.0774 0 41.7729 0 42.6291C0 43.486 0.692846 44.1808 1.54732 44.1808ZM83.4527 41.0774H77.508C76.6535 41.0774 75.9606 41.7729 75.9606 42.6291C75.9606 43.486 76.6535 44.1808 77.508 44.1808H83.4527C84.3065 44.1808 85 43.486 85 42.6291C85 41.7729 84.3065 41.0774 83.4527 41.0774ZM12.4493 14.6788L16.6546 18.8968C17.2584 19.5016 18.2393 19.5016 18.8423 18.8968C19.446 18.2913 19.446 17.3077 18.8423 16.7022L14.6369 12.485C14.0332 11.8795 13.0523 11.8795 12.4493 12.485C11.8456 13.0904 11.8456 14.0741 12.4493 14.6788ZM70.3615 12.485L66.1561 16.7022C65.5531 17.3077 65.5531 18.2913 66.1561 18.8968C66.7599 19.5016 67.7407 19.5016 68.3438 18.8968L72.5498 14.6788C73.1529 14.0741 73.1529 13.0904 72.5498 12.485C71.9461 11.8795 70.9652 11.8795 70.3615 12.485ZM40.9465 1.55171V7.51329C40.9465 8.37018 41.64 9.06499 42.4938 9.06499C43.3448 9.06499 44.0411 8.37018 44.0411 7.51329V1.55171C44.0411 0.695503 43.3448 0 42.4938 0C41.64 0 40.9465 0.695503 40.9465 1.55171Z" fill="#003366"/>
</svg>
