<svg width="48" height="48" viewBox="0 0 48 48" fill="none" xmlns="http://www.w3.org/2000/svg">
<path d="M28.8 15.2002H19.2V26.4861H16L24 35.2001L32 26.4861H28.8V15.2002ZM24 23.1998C24.7604 23.198 25.4764 23.5573 25.9293 24.1681C26.3818 24.7791 26.5179 25.5684 26.295 26.2956C26.0722 27.0224 25.5175 27.6006 24.8004 27.8527L24.8 28.7138H23.2L23.2004 27.8527C22.7336 27.6884 22.3293 27.3838 22.0429 26.9806C21.7565 26.5774 21.6018 26.0952 21.6 25.6006C21.6 25.1588 21.9582 24.8006 22.4 24.8006C22.8418 24.8006 23.2 25.1588 23.2 25.6006C23.2004 25.9241 23.3954 26.2156 23.6943 26.3391C23.9932 26.4627 24.3375 26.3941 24.5661 26.1652C24.7947 25.9363 24.8629 25.5923 24.7389 25.2934C24.615 24.9945 24.3236 24.7998 24 24.7998C23.2397 24.8016 22.5236 24.4423 22.0707 23.8316C21.6182 23.2209 21.4821 22.4317 21.705 21.7044C21.9278 20.9777 22.4828 20.3997 23.2 20.1477V19.2002H24.8V20.1477C25.2665 20.312 25.6707 20.617 25.9575 21.0202C26.2439 21.4234 26.3986 21.9055 26.4 22.4002H24.8C24.8 22.0766 24.6054 21.7848 24.3064 21.6609C24.0075 21.537 23.6632 21.6052 23.4343 21.8341C23.2057 22.0627 23.1371 22.407 23.2607 22.7059C23.3847 23.0049 23.6764 23.1998 24 23.1998Z" fill="#003366"/>
<path d="M43.9208 10.6132C42.184 8.03462 39.965 5.81602 37.3865 4.07924L36.2783 5.18745C35.9222 5.53173 35.4654 5.7528 34.9743 5.81816C34.4836 5.88351 33.9847 5.78959 33.5511 5.55066C32.5044 5.00637 31.4129 4.5528 30.2882 4.19532C29.8136 4.05746 29.3957 3.77139 29.0953 3.37853C28.7953 2.98567 28.6286 2.50711 28.6203 2.01314V0.454553C25.57 -0.151518 22.43 -0.151518 19.3797 0.454553V2.01314C19.3714 2.50706 19.2047 2.98566 18.9047 3.37853C18.6043 3.77103 18.1864 4.05746 17.7118 4.19532C16.5871 4.55282 15.4957 5.00639 14.4489 5.55029C14.0153 5.78958 13.5164 5.8835 13.0257 5.81815C12.5346 5.75279 12.0779 5.53172 11.7218 5.18744L10.6135 4.07923C8.03499 5.81601 5.81602 8.03461 4.07924 10.6132L5.18745 11.7217C5.53173 12.0775 5.7528 12.5346 5.81816 13.0257C5.88351 13.5164 5.78959 14.0153 5.55066 14.4489C5.00637 15.4956 4.5528 16.5871 4.19532 17.7114C4.05746 18.1861 3.77139 18.6043 3.37853 18.9047C2.98567 19.2046 2.50711 19.3711 2.01314 19.3797H0.454553C-0.151518 22.43 -0.151518 25.57 0.454553 28.6203H2.01314C2.50706 28.6286 2.98566 28.795 3.37853 29.0953C3.77139 29.3957 4.05746 29.8136 4.19532 30.2882C4.55282 31.4125 5.00639 32.5043 5.55029 33.5511C5.78958 33.9847 5.8835 34.4836 5.81815 34.9743C5.75279 35.4654 5.53172 35.9221 5.18744 36.2782L4.07923 37.3864C5.81601 39.9654 8.03461 42.184 10.6132 43.9208L11.7217 42.8126C12.0778 42.4683 12.5346 42.2472 13.0257 42.1818C13.5164 42.1165 14.0153 42.2104 14.4489 42.4493C15.4956 42.9936 16.5871 43.4472 17.7118 43.8047C18.1864 43.9425 18.6043 44.2286 18.9047 44.6215C19.2046 45.0143 19.3714 45.4929 19.3797 45.9872V47.5458V47.5455C22.43 48.1515 25.57 48.1515 28.6203 47.5455V45.9869C28.6285 45.4929 28.7953 45.0143 29.0953 44.6215C29.3957 44.2286 29.8136 43.9425 30.2882 43.8047C31.4129 43.4472 32.5043 42.9936 33.5511 42.4494C33.9847 42.2104 34.4836 42.1165 34.9743 42.1819C35.4654 42.2472 35.9221 42.4683 36.2782 42.8126L37.3868 43.9208C39.9654 42.184 42.184 39.9654 43.9208 37.3865L42.8126 36.2783C42.4683 35.9222 42.2472 35.4654 42.1818 34.9743C42.1165 34.4836 42.2104 33.9847 42.4493 33.5511C42.9936 32.5044 43.4472 31.4125 43.8047 30.2882C43.9425 29.8136 44.2286 29.3957 44.6215 29.0953C45.0143 28.795 45.4929 28.6286 45.9869 28.6203H47.5454C48.1515 25.57 48.1515 22.43 47.5454 19.3797H45.9869C45.4929 19.3711 45.0143 19.2047 44.6215 18.9047C44.2286 18.6043 43.9425 18.1861 43.8047 17.7114C43.4472 16.5871 42.9936 15.4957 42.4493 14.4489C42.2104 14.0153 42.1165 13.5164 42.1818 13.0257C42.2472 12.5346 42.4683 12.0775 42.8126 11.7218L43.9208 10.6132ZM24.0003 40.0002C19.7567 40.0002 15.6871 38.3144 12.6869 35.3137C9.68624 32.3134 8.00048 28.2437 8.00048 24.0003C8.00048 19.757 9.68624 15.6871 12.6869 12.687C15.6873 9.68628 19.7569 8.00052 24.0003 8.00052C28.2437 8.00052 32.3135 9.68628 35.3137 12.687C38.3144 15.6873 40.0001 19.757 40.0001 24.0003C40.0001 26.8089 39.2608 29.5682 37.8566 32.0003C36.4523 34.4325 34.4323 36.4525 32.0001 37.8568C29.5679 39.2611 26.8087 40.0003 24.0001 40.0003L24.0003 40.0002Z" fill="#003366"/>
</svg>
