<svg width="80" height="84" viewBox="0 0 80 84" fill="none" xmlns="http://www.w3.org/2000/svg">
<path d="M39.6126 36.7265L45.5154 47.2199C45.7775 47.6136 46.1712 47.8757 46.696 47.8757C47.2207 47.8757 47.6138 47.6136 47.8765 47.2199L53.7794 36.7265V36.5955V36.4644C53.7794 36.3334 53.9104 36.2024 53.9104 36.0707L53.9098 8.78729C53.9098 7.34466 52.7292 6.16406 51.2866 6.16406H42.1047C40.6621 6.16406 39.4815 7.34461 39.4815 8.78729V36.2006C39.4809 36.3322 39.4809 36.5943 39.6126 36.7259L39.6126 36.7265ZM46.6952 43.9403L43.0225 37.5134H50.368L46.6952 43.9403ZM51.2858 34.8902H48.0068V8.78778H51.2858V34.8902ZM45.3836 8.78778V34.8902H42.1046V8.78778H45.3836Z" fill="#003366"/>
<path d="M26.103 23.7395C26.103 24.5263 26.6278 25.051 27.4146 25.051H34.1042C34.891 25.051 35.4158 24.5263 35.4158 23.7395C35.4158 22.9526 34.891 22.4279 34.1042 22.4279H27.4146C26.7588 22.4273 26.103 22.952 26.103 23.7395Z" fill="#003366"/>
<path d="M34.1046 31.4795H27.4151C26.6283 31.4795 26.1035 32.0042 26.1035 32.7911C26.1035 33.5779 26.6283 34.1027 27.4151 34.1027H34.1046C34.8915 34.1027 35.4162 33.5779 35.4162 32.7911C35.4162 32.1353 34.8915 31.4795 34.1046 31.4795Z" fill="#003366"/>
<path d="M34.1046 40.6611H27.4151C26.6283 40.6611 26.1035 41.1859 26.1035 41.9727C26.1035 42.7596 26.6283 43.2843 27.4151 43.2843H34.1046C34.8915 43.2843 35.4162 42.7596 35.4162 41.9727C35.4162 41.1859 34.8915 40.6611 34.1046 40.6611Z" fill="#003366"/>
<path d="M24.2667 61.1233H26.8899C27.6767 61.1233 28.2015 60.5986 28.2015 59.8117C28.2015 59.0249 27.6767 58.5001 26.8899 58.5001H24.2667C23.4798 58.5001 22.9551 59.0249 22.9551 59.8117C22.9551 60.4675 23.4792 61.1233 24.2667 61.1233Z" fill="#003366"/>
<path d="M38.5645 61.1233H41.1877C41.9746 61.1233 42.4993 60.5986 42.4993 59.8117C42.4993 59.0249 41.9746 58.5001 41.1877 58.5001H38.5645C37.7777 58.5001 37.2529 59.0249 37.2529 59.8117C37.2529 60.4675 37.9087 61.1233 38.5645 61.1233Z" fill="#003366"/>
<path d="M52.8609 61.1233H55.4841C56.271 61.1233 56.7957 60.5986 56.7957 59.8117C56.7957 59.0249 56.271 58.5001 55.4841 58.5001H52.8609C52.0741 58.5001 51.5493 59.0249 51.5493 59.8117C51.5493 60.4675 52.2051 61.1233 52.8609 61.1233Z" fill="#003366"/>
<path d="M1.31311 53.6466C0.526285 53.6466 0.00151556 54.1714 0.00151556 54.9582C0.00151556 55.7451 0.526269 56.2698 1.31311 56.2698H5.24787V66.6321C5.24787 67.4189 5.77262 67.9437 6.55947 67.9437H27.0209L19.1508 81.9787C18.757 82.6345 19.0197 83.4213 19.6755 83.815C20.3313 84.2088 21.1181 83.9461 21.5119 83.2903L30.0378 67.9438H38.5637V75.8139C38.5637 76.6007 39.0884 77.1255 39.8753 77.1255C40.6621 77.1255 41.1869 76.6007 41.1869 75.8139V67.9438H49.7128L58.2387 83.2903C58.6324 83.9461 59.4192 84.2082 60.075 83.815C60.7308 83.4213 60.9929 82.6345 60.5998 81.9787L52.7297 67.9437H73.1911C73.9779 67.9437 74.5027 67.4189 74.5027 66.6321V56.2698H78.4374C79.2243 56.2698 79.749 55.7451 79.749 54.9582C79.749 54.1714 79.2243 53.6466 78.4374 53.6466H74.5027V33.8407H78.4374C79.2243 33.8407 79.749 33.3159 79.749 32.5291C79.749 31.7422 79.2243 31.2175 78.4374 31.2175H74.5027V20.8552C74.5027 20.0684 73.9779 19.5436 73.1911 19.5436H61.7799L61.7793 3.93476C61.7793 1.83636 60.074 0 57.8446 0H30.6925C30.4304 0 30.0367 0.131039 29.9057 0.393723L18.3628 11.8049C18.1008 12.067 17.9691 12.4607 17.9691 12.7227V19.5434L6.55795 19.544C5.77112 19.544 5.24635 20.0687 5.24635 20.8556V31.2178H1.3116C0.524768 31.2178 0 31.7426 0 32.5294C0 33.3163 0.524753 33.841 1.3116 33.841H5.24635V53.647L1.31311 53.6466ZM59.1573 3.93386V50.2364C59.1573 50.8922 58.6325 51.548 57.8457 51.548H21.9068C21.251 51.548 20.5952 51.0232 20.5952 50.2364V14.1661H30.6948C31.4816 14.1661 32.0064 13.6414 32.0064 12.8545V2.62319H57.7146C58.5014 2.62319 59.1572 3.14795 59.1572 3.93479L59.1573 3.93386ZM29.5133 4.45861V11.4103H22.5615L29.5133 4.45861ZM7.87078 22.1668H17.9704V50.2356C17.9704 52.3339 19.6757 54.1703 21.9052 54.1703H57.844C59.9424 54.1703 61.7788 52.465 61.7788 50.2356L61.7794 22.1668H71.879V65.3204H7.86984L7.87078 22.1668Z" fill="#003366"/>
</svg>
