<svg width="76" height="75" viewBox="0 0 76 75" fill="none" xmlns="http://www.w3.org/2000/svg">
<path d="M60.5461 61.9115C59.8633 61.9115 59.4082 62.3666 59.4082 63.0495V71.0162C59.4082 72.0402 58.4975 72.837 57.2457 72.837H4.4387C3.30074 72.837 2.27622 72.0402 2.27622 71.0162L2.27676 14.681C2.27676 13.657 3.30081 12.8602 4.43924 12.8602H14.3406V16.1607C14.3406 16.8435 14.7957 17.2986 15.4786 17.2986H46.0929C46.7758 17.2986 47.2308 16.8435 47.2308 16.1607V12.8602H57.2457C58.3836 12.8602 59.4081 13.6569 59.4081 14.681V19.6884C59.4081 20.3712 59.8632 20.8263 60.5461 20.8263C61.229 20.8263 61.6841 20.3712 61.6841 19.6884V14.681C61.6841 12.4051 59.7493 10.5838 57.2456 10.5838H47.2308L47.2303 7.85281C47.2303 7.16994 46.7752 6.71486 46.0923 6.71486H41.7678L41.7672 5.80418C41.7672 2.61755 38.9218 0 35.3941 0H26.2894C22.7612 0 19.9163 2.61755 19.9163 5.80418V6.60096H15.5918C14.9089 6.60096 14.4538 7.05604 14.4538 7.73891V10.4705H4.43841C2.0486 10.4705 0 12.2913 0 14.5677V70.9028C0 73.1787 1.93473 75 4.43841 75H57.2454C59.6352 75 61.6838 73.1791 61.6838 70.9028V62.9361C61.6844 62.3672 61.1149 61.9116 60.5459 61.9116L60.5461 61.9115ZM22.1929 5.80443C22.1929 3.8697 24.0138 2.27618 26.2901 2.27618H35.3948C37.6707 2.27618 39.492 3.8697 39.492 5.80443V6.60121H22.1928L22.1929 5.80443ZM44.955 8.99107V15.1365L16.6168 15.137V8.99161C26.0631 8.99107 35.5094 8.99107 44.955 8.99107Z" fill="#003366"/>
<path d="M27.884 21.1691H9.90211C9.21924 21.1691 8.76416 21.6241 8.76416 22.307V40.517C8.76416 41.1998 9.21924 41.6549 9.90211 41.6549H27.884C28.5669 41.6549 29.022 41.1998 29.022 40.517V34.3716C29.022 33.6887 28.5669 33.2336 27.884 33.2336C27.2012 33.2336 26.7461 33.6887 26.7461 34.3716V39.3789H11.0402V23.4464H27.8834C28.5663 23.4464 29.0214 22.9914 29.0214 22.3085C29.0214 21.7395 28.5663 21.17 27.8834 21.17L27.884 21.1691Z" fill="#003366"/>
<path d="M18.5519 33.6885L16.276 29.0222C16.0482 28.4532 15.3653 28.2254 14.7963 28.5671C14.2273 28.7949 13.9995 29.4778 14.3412 30.0468L17.3 35.851C17.4139 36.1921 17.7551 36.4199 18.0968 36.4199H18.3246C18.5524 36.4199 18.7796 36.306 19.0074 36.1921L29.5918 28.4532C30.0469 28.112 30.1608 27.4292 29.8196 26.8597C29.4784 26.4046 28.7955 26.2907 28.2261 26.6319L18.5519 33.6885Z" fill="#003366"/>
<path d="M41.655 48.712C41.086 48.4842 40.4032 48.8259 40.1754 49.3949L34.3712 66.4661C34.2573 66.9211 34.3712 67.4901 34.8262 67.8318C35.2813 68.0596 35.8503 68.0596 36.192 67.7179L40.4027 63.8485L41.4267 69.5388C41.5406 69.9939 41.8818 70.4495 42.4508 70.4495C42.9058 70.4495 43.4748 70.2216 43.5887 69.6527L49.0517 54.1749C49.2795 53.6059 48.9378 52.923 48.3688 52.6952C47.7998 52.4674 47.117 52.8091 46.8892 53.3781L42.792 64.7587L42.223 61.3443C42.1091 60.8892 41.8818 60.5475 41.4262 60.4336C41.085 60.3197 40.6294 60.4336 40.2883 60.6614L37.7846 62.9374L42.338 50.0777C42.5652 49.5081 42.224 48.8259 41.655 48.712Z" fill="#003366"/>
<path d="M74.9999 66.0094L68.1717 49.2795C67.9439 48.7106 67.261 48.3689 66.692 48.7106C66.1231 48.9384 65.7814 49.6212 66.1231 50.1902L71.2444 62.8226L68.6269 60.6601C68.2857 60.4323 67.8301 60.319 67.4889 60.5462C67.1478 60.6601 66.8061 61.0013 66.8061 61.4569L66.4649 64.7574L61.9126 53.3768C61.6848 52.8078 61.0019 52.4661 60.4329 52.6939C59.864 52.9217 59.5223 53.6046 59.7501 54.1736L66.0093 69.6514C66.2371 70.1065 66.6922 70.4482 67.2612 70.3343C67.8302 70.2204 68.1719 69.8792 68.2852 69.3102L68.9681 63.6199L73.4065 67.2616C73.8616 67.6028 74.4306 67.6028 74.7723 67.2616C75.114 67.0333 75.2279 66.4643 75.0001 66.0092L74.9999 66.0094Z" fill="#003366"/>
<path d="M44.1592 36.7608C44.1592 42.4511 48.8255 47.1172 54.5156 47.1172C60.2058 47.1172 64.8721 42.4509 64.8721 36.7608C64.8721 31.0706 60.2058 26.4043 54.5156 26.4043C48.8255 26.4043 44.1592 31.0706 44.1592 36.7608ZM62.7091 36.7608C62.7091 41.1992 59.0674 44.8409 54.629 44.8409C50.1906 44.8409 46.5488 41.1992 46.5488 36.7608C46.5488 32.3224 50.1906 28.6806 54.629 28.6806C59.0674 28.6806 62.7091 32.3224 62.7091 36.7608Z" fill="#003366"/>
<path d="M55.0832 19.2338C54.8554 19.006 54.5143 18.8926 54.2865 18.8926C53.9453 18.8926 53.7175 19.0065 53.4897 19.2338L50.5309 22.3064L46.4337 21.2823C46.0926 21.1684 45.8648 21.2823 45.5231 21.3962C45.2953 21.5101 45.068 21.8513 44.9541 22.0791L44.0434 25.8347L40.2878 26.6315C39.7188 26.7454 39.2638 27.4282 39.3771 27.9972L40.4012 32.7774L36.9868 36.3056C36.5317 36.7607 36.5317 37.4436 36.9868 37.8992L40.0594 40.8579L39.0354 44.9551C38.9215 45.5241 39.2632 46.207 39.8322 46.3209L43.5877 47.2315L44.3845 50.9871C44.4984 51.3283 44.6123 51.5561 44.8396 51.67C45.0674 51.7839 45.4086 51.8978 45.7503 51.7839L50.5304 50.7598L54.0587 54.1742C54.2865 54.402 54.5138 54.5154 54.8555 54.5154C55.1966 54.5154 55.4244 54.4015 55.6522 54.1742L58.611 51.1016L62.7082 52.1257C63.0494 52.2396 63.2772 52.1257 63.6189 52.0118C63.8467 51.8979 64.0739 51.5567 64.1878 51.3289L65.0985 47.5733L68.8541 46.7765C69.4231 46.6626 69.8782 45.9797 69.7648 45.4108L68.7407 40.6306L72.1551 37.1024C72.6102 36.6473 72.6102 35.9644 72.1551 35.5088L69.0825 32.5501L70.1065 28.4529C70.2204 27.8839 69.8787 27.201 69.3098 27.0871L65.4398 26.1764L64.643 22.4209C64.5291 22.0797 64.4152 21.8519 64.1879 21.738C63.9601 21.6241 63.6189 21.5102 63.2772 21.6241L58.4971 22.6481L55.0832 19.2338ZM63.3911 27.3144C63.505 27.7695 63.8462 28.1112 64.1879 28.2251L67.4884 29.0219L66.5777 32.6636C66.4638 33.0048 66.5777 33.4604 66.9189 33.8015L69.6504 36.4191L66.5778 39.4917C66.35 39.7195 66.2366 40.1746 66.2366 40.5158L67.1473 44.7264L63.8468 45.4093C63.3917 45.5232 63.05 45.8644 62.9361 46.2061L62.1394 49.5066L58.4976 48.5959C58.0426 48.482 57.7009 48.5959 57.3597 48.9371L54.7421 51.6686L51.6695 48.596C51.4417 48.3682 51.2144 48.2548 50.8727 48.2548H50.6449L46.4343 49.1655L45.7514 45.865C45.6375 45.4099 45.2963 45.0682 44.9546 44.9543L41.6541 44.1576L42.5648 40.5158C42.6787 40.1747 42.5648 39.7191 42.2236 39.3779L39.4921 36.7603L42.5647 33.6877C42.7925 33.4599 42.9059 33.0048 42.9059 32.6637L41.9952 28.453L45.2957 27.7701C45.7508 27.6562 46.0925 27.3151 46.2064 26.9734L47.0032 23.6728L50.6449 24.5835C50.986 24.6974 51.4416 24.5835 51.7828 24.2424L54.4004 21.5108L57.473 24.5834C57.7008 24.8112 58.1559 24.9246 58.497 24.9246L62.7077 24.0139L63.3911 27.3144Z" fill="#003366"/>
<path d="M48.8246 36.7603L52.0112 41.1987C52.239 41.4265 52.4663 41.6537 52.808 41.6537H52.9219C53.2631 41.6537 53.4909 41.5398 53.7187 41.3126L59.9779 34.5977C60.433 34.1426 60.433 33.4597 59.9779 33.0041C59.5228 32.5491 58.84 32.5491 58.3844 33.0041L53.0353 38.6945L50.6455 35.394C50.3043 34.9389 49.5075 34.825 49.052 35.1662C48.5969 35.6223 48.4829 36.3052 48.8246 36.7603Z" fill="#003366"/>
<path d="M5.69141 48.825C5.69141 49.5079 6.14648 49.963 6.82936 49.963H30.8435C31.5264 49.963 31.9814 49.5079 31.9814 48.825C31.9814 48.1421 31.5264 47.6871 30.8435 47.6871L6.83074 47.6865C6.26176 47.6865 5.69225 48.1421 5.69225 48.825H5.69141Z" fill="#003366"/>
<path d="M6.94313 57.9292H30.9573C31.6401 57.9292 32.0952 57.4741 32.0952 56.7913C32.0952 56.1084 31.6401 55.6533 30.9573 55.6533H6.94313C6.26025 55.6533 5.80518 56.1084 5.80518 56.7913C5.80518 57.4741 6.26079 57.9292 6.94313 57.9292Z" fill="#003366"/>
<path d="M6.94313 65.8961H30.9573C31.6401 65.8961 32.0952 65.4411 32.0952 64.7582C32.0952 64.0753 31.6401 63.6202 30.9573 63.6202H6.94313C6.26025 63.6202 5.80518 64.0753 5.80518 64.7582C5.80518 65.4411 6.37415 65.8961 6.94313 65.8961Z" fill="#003366"/>
</svg>
