<svg width="59" height="52" viewBox="0 0 59 52" fill="none" xmlns="http://www.w3.org/2000/svg">
<path d="M13.175 10.4867C13.7528 10.7841 14.1416 11.3527 14.2088 11.9986C14.276 12.6448 14.0129 13.2812 13.5088 13.6912C13.0047 14.1008 12.328 14.2286 11.7091 14.0305C11.4516 13.9478 11.1712 13.9764 10.935 14.109C10.6992 14.2416 10.5293 14.4666 10.4664 14.7297C9.77682 17.6377 9.77682 20.6666 10.4664 23.575C10.5314 23.8368 10.7013 24.0604 10.9367 24.1926C11.1721 24.3252 11.4516 24.3543 11.7091 24.2737C12.3272 24.0782 13.0025 24.2069 13.5057 24.6161C14.0085 25.0257 14.2711 25.6611 14.2048 26.306C14.1381 26.951 13.751 27.5193 13.175 27.8174C12.9353 27.9436 12.7584 28.1637 12.6869 28.4247C12.615 28.6861 12.6548 28.9652 12.7966 29.1962C14.3696 31.7353 16.5099 33.8757 19.049 35.4491C19.2809 35.5913 19.5618 35.6303 19.8236 35.5566C20.0854 35.4829 20.3043 35.303 20.4278 35.0607C20.7256 34.4855 21.2929 34.0993 21.9371 34.0335C22.5812 33.9672 23.2149 34.2302 23.6231 34.733C24.0314 35.2354 24.1589 35.9098 23.9621 36.5266C23.881 36.7845 23.9101 37.0641 24.0427 37.2994C24.1749 37.5348 24.399 37.7047 24.6608 37.7693C27.5713 38.4684 30.6054 38.4684 33.5156 37.7693C33.7774 37.7038 34.0002 37.5335 34.1324 37.2986C34.2646 37.0632 34.2945 36.7845 34.2148 36.5266C34.0171 35.9098 34.1441 35.2345 34.5524 34.7313C34.9607 34.2285 35.5953 33.9654 36.2398 34.0317C36.8843 34.098 37.4517 34.4851 37.7491 35.0607C37.8744 35.3008 38.0937 35.4789 38.3546 35.5522C38.6155 35.6259 38.8951 35.5886 39.1274 35.449C41.667 33.8756 43.8069 31.7353 45.3803 29.1962C45.5221 28.9651 45.5619 28.686 45.49 28.4246C45.4185 28.1637 45.2416 27.9435 45.0015 27.8174C44.5655 27.6011 44.2278 27.2266 44.0583 26.7702C43.8889 26.3138 43.8997 25.8097 44.0891 25.3611C46.2346 21.8754 47.9337 28.1087 48.225 19.1568V19.1572C48.2237 17.6666 48.0507 16.1808 47.7105 14.7297C47.6454 14.4679 47.4755 14.2442 47.2402 14.1116C47.0048 13.9794 46.7252 13.9499 46.4678 14.0305C45.8493 14.2269 45.1735 14.0986 44.6703 13.689C44.1671 13.2794 43.9044 12.6439 43.9712 11.9986C44.0379 11.3532 44.4254 10.7849 45.0015 10.4867C45.2407 10.3623 45.4171 10.1443 45.4891 9.88469C45.5606 9.62506 45.5216 9.34722 45.3803 9.11793C43.81 6.57359 41.6697 4.42981 39.1274 2.8555C38.8951 2.7155 38.6155 2.67778 38.3542 2.75104C38.0932 2.82472 37.8739 3.0033 37.7491 3.24386C37.4513 3.81904 36.8839 4.20524 36.2398 4.27112C35.5957 4.337 34.9615 4.07434 34.5537 3.57154C34.1454 3.06919 34.018 2.3948 34.2148 1.77752C34.2924 1.51876 34.2646 1.23961 34.1372 1.00079C33.6517 -0.212903 23.03 -0.70779 23.9621 1.77752C24.1598 2.39474 24.0328 3.07 23.6245 3.57287C23.2162 4.0761 22.5816 4.33919 21.9371 4.27288C21.2926 4.20656 20.7252 3.8195 20.4278 3.24389C20.3043 3.0029 20.0863 2.82345 19.8262 2.74847C18.6416 2.21491 10.7478 9.40916 13.175 10.4867ZM41.7098 19.1573C41.7098 23.6664 39.3042 27.8332 35.3989 30.0879C31.4936 32.3426 26.6823 32.3426 22.7771 30.0879C18.8718 27.8332 16.4661 23.6664 16.4661 19.1573C17.1553 2.40884 41.0208 2.40884 41.7098 19.1573Z" fill="#003366"/>
<path d="M39.7677 19.1574C39.7677 15.3418 37.7323 11.8158 34.4277 9.90828C31.1232 8.0003 27.0523 8.0003 23.7477 9.90828C20.4432 11.8158 18.4077 15.3419 18.4077 19.1574C18.9903 33.3128 39.1852 33.3228 39.7677 19.1574ZM23.9513 17.7401L27.6313 21.4201L34.2239 14.8274V14.827C34.6045 14.4616 35.207 14.4664 35.5814 14.8382C35.9559 15.2101 35.9654 15.8131 35.6022 16.1962L28.3204 23.478C27.9389 23.8564 27.3235 23.8564 26.942 23.478L22.5729 19.1089C22.208 18.7258 22.2162 18.1215 22.5916 17.7488C22.9665 17.376 23.5711 17.3721 23.9513 17.7397L23.9513 17.7401Z" fill="#003366"/>
<path d="M44.5147 36.0255C44.8103 36.413 45.3478 36.5205 45.7699 36.2769L51.6977 32.8548C52.1545 32.5831 52.308 31.9949 52.0423 31.5346C51.7766 31.0747 51.1906 30.9135 50.7268 31.1731L49.2202 32.0435C51.5201 28.364 52.7454 24.115 52.7589 19.7767C52.7593 19.2405 52.325 18.8054 51.7888 18.8049C51.2527 18.8041 50.8175 19.2384 50.817 19.7745C50.8019 25.3906 48.5675 30.7727 44.601 34.7476C44.2547 35.0914 44.2178 35.6388 44.5147 36.0259L44.5147 36.0255Z" fill="#003366"/>
<path d="M6.38752 19.5004C6.64498 19.5008 6.89205 19.399 7.07452 19.2169C7.25657 19.0349 7.35929 18.7883 7.35929 18.5304C7.37446 12.9147 9.60881 7.53266 13.5753 3.55726C13.9117 3.21137 13.9433 2.67173 13.6508 2.28853C13.3578 1.90537 12.8285 1.79441 12.4063 2.02802L6.47856 5.45007C6.02214 5.72183 5.86914 6.30958 6.1344 6.76995C6.4001 7.22983 6.98569 7.39108 7.44951 7.13187L8.95615 6.26151C6.65625 9.94099 5.43091 14.19 5.41748 18.5283C5.41705 18.7857 5.51934 19.0328 5.70139 19.2153C5.883 19.3973 6.13006 19.5001 6.38753 19.5001L6.38752 19.5004Z" fill="#003366"/>
<path d="M52.8759 40.5173H5.30126C-1.75732 40.7601 -1.77685 50.9351 5.30126 51.1973H52.8759C59.9344 50.9447 59.954 40.7695 52.8759 40.5173ZM13.5534 44.401C13.5586 43.8683 13.9921 43.4396 14.5244 43.4396C15.0566 43.4396 15.4901 43.8683 15.4953 44.401C15.4901 44.9332 15.0566 45.3619 14.5244 45.3619C13.9921 45.3619 13.5586 44.9332 13.5534 44.401ZM14.8061 47.9933C14.624 47.8117 14.5222 47.5655 14.5222 47.3085C14.5222 47.0519 14.624 46.8057 14.8061 46.6241L17.7188 43.7114C18.1002 43.333 18.7157 43.333 19.0972 43.7114C19.2792 43.893 19.3811 44.1392 19.3811 44.3958C19.3811 44.6528 19.2792 44.899 19.0972 45.0806L16.1844 47.9933C15.803 48.3717 15.1875 48.3717 14.8061 47.9933ZM19.3789 48.2846C18.8497 48.2751 18.4253 47.8429 18.4253 47.3137C18.4253 46.784 18.8497 46.3519 19.3789 46.3428C19.9081 46.3519 20.3325 46.784 20.3325 47.3137C20.3325 47.8429 19.9081 48.2751 19.3789 48.2846ZM52.8759 49.2555H31.7489C32.5304 48.2955 32.9573 47.0952 32.9573 45.8573C32.9573 44.619 32.5304 43.4187 31.7489 42.4592H52.8759C54.0826 42.4696 55.1931 43.1197 55.7934 44.167C56.3937 45.2137 56.3937 46.5006 55.7934 47.5474C55.193 48.5946 54.0826 49.2447 52.8759 49.2555Z" fill="#003366"/>
</svg>
