<svg width="85" height="80" viewBox="0 0 85 80" fill="none" xmlns="http://www.w3.org/2000/svg">
<path d="M76.5 66.6667V28C76.5 25.7333 74.6583 24 72.25 24H65.1667V0H19.8333V24H12.75C10.3417 24 8.5 25.7333 8.5 28V66.6667H0V73.3333C0 77.0667 3.11667 80 7.08333 80H77.9167C81.8833 80 85 77.0667 85 73.3333V66.6667H76.5ZM65.1667 56V32H68V58.6667H17V32H19.8333V56H65.1667ZM22.6667 2.66667H62.3333V53.3333H22.6667V2.66667ZM11.3333 28C11.3333 27.2 11.9 26.6667 12.75 26.6667H19.8333V29.3333H14.1667V61.3333H70.8333V29.3333H65.1667V26.6667H72.25C73.1 26.6667 73.6667 27.2 73.6667 28V66.6667H11.3333V28ZM35.4167 69.3333H49.5833V70.6667C49.5833 71.4667 49.0167 72 48.1667 72H36.8333C35.9833 72 35.4167 71.4667 35.4167 70.6667V69.3333ZM82.1667 73.3333C82.1667 75.6 80.325 77.3333 77.9167 77.3333H7.08333C4.675 77.3333 2.83333 75.6 2.83333 73.3333V69.3333H32.5833V70.6667C32.5833 72.9333 34.425 74.6667 36.8333 74.6667H48.1667C50.575 74.6667 52.4167 72.9333 52.4167 70.6667V69.3333H82.1667V73.3333Z" fill="#003366"/>
<path d="M31.1666 17.2044V21.7922C31.1666 22.2223 31.0249 22.5091 30.7416 22.7958L27.7666 25.8066L30.7416 28.8173C31.0249 29.104 31.1666 29.3908 31.1666 29.8209V34.4087C31.1666 36.846 33.0083 38.7098 35.4166 38.7098H38.2499V35.8424H35.4166C34.5666 35.8424 33.9999 35.2689 33.9999 34.4087V29.8209C33.9999 28.6739 33.5749 27.6703 32.7249 26.8101L31.7333 25.8066L32.7249 24.803C33.5749 24.0861 33.9999 22.9392 33.9999 21.7922V17.2044C33.9999 16.3442 34.5666 15.7707 35.4166 15.7707H38.2499V12.9033H35.4166C33.0083 12.9033 31.1666 14.7671 31.1666 17.2044Z" fill="#003366"/>
<path d="M53.8333 21.7922V17.2044C53.8333 14.7671 51.9917 12.9033 49.5833 12.9033H46.75V15.7707H49.5833C50.4333 15.7707 51 16.3442 51 17.2044V21.7922C51 22.9392 51.425 23.9427 52.275 24.803L53.2667 25.8066L52.275 26.8101C51.425 27.527 51 28.6739 51 29.8209V34.4087C51 35.2689 50.4333 35.8424 49.5833 35.8424H46.75V38.7098H49.5833C51.9917 38.7098 53.8333 36.846 53.8333 34.4087V29.8209C53.8333 29.3908 53.975 29.104 54.2583 28.8173L57.2333 25.8066L54.2583 22.7958C53.975 22.5091 53.8333 22.2223 53.8333 21.7922Z" fill="#003366"/>
</svg>
