<svg width="48" height="50" viewBox="0 0 48 50" fill="none" xmlns="http://www.w3.org/2000/svg">
<path d="M32.9412 28.2157C33.2561 27.1661 35.6178 26.4314 35.6178 25.2767C35.6178 24.1221 33.2561 23.3349 32.9412 22.3377C32.5737 21.2354 34.0436 19.2413 33.3611 18.3491C32.6787 17.4568 30.3694 18.1916 29.4249 17.5092C28.5323 16.8792 28.5323 14.4124 27.4304 14.0452C26.3808 13.7304 24.9636 15.6721 23.8089 15.6721C22.6542 15.6721 21.1847 13.6776 20.1874 14.0452C19.0855 14.4124 19.0855 16.8791 18.1929 17.5092C17.3008 18.1916 14.939 17.4042 14.2567 18.3491C13.627 19.2412 15.0438 21.2358 14.6766 22.3377C14.3617 23.3873 12 24.1221 12 25.2767C12 26.4314 14.3617 27.2185 14.6766 28.2157C15.0441 29.3181 13.5742 31.3122 14.2567 32.2044C14.9391 33.0966 17.2484 32.3618 18.1929 33.0442C19.0851 33.6739 19.0851 36.1407 20.1874 36.5083C21.237 36.8231 22.7066 34.8813 23.8089 34.8813C24.9635 34.8813 26.4331 36.8758 27.4304 36.5083C28.5327 36.1407 28.5327 33.6743 29.4249 33.0442C30.317 32.3618 32.6788 33.1493 33.3611 32.2044C33.9908 31.3122 32.5737 29.3181 32.9412 28.2157ZM28.2175 23.9122L23.6515 28.4782C23.4417 28.7407 23.1265 28.8458 22.8117 28.8458C22.4968 28.8458 22.182 28.7407 21.9718 28.4782L19.2426 25.749C18.7703 25.2767 18.7703 24.4893 19.2426 24.017C19.7149 23.5448 20.5023 23.5448 20.9746 24.017L22.8117 25.8541L26.5382 22.1276C27.0105 21.6553 27.7979 21.6553 28.2702 22.1276C28.6897 22.705 28.6897 23.4397 28.2175 23.9123L28.2175 23.9122Z" fill="#003366"/>
<path d="M22.9998 6.45579V11.3366C22.9998 11.8089 23.4197 12.2288 23.892 12.2288C24.3642 12.2288 24.7842 11.8089 24.7842 11.3366V6.45579C26.1486 6.08822 27.1986 4.77612 27.1986 3.30657C27.1986 1.46945 25.729 0 23.892 0C22.055 0 20.5854 1.46955 20.5854 3.30657C20.5854 4.77612 21.5826 6.03582 22.9998 6.45579Z" fill="#003366"/>
<path d="M12.3456 10.497L15.2323 14.4857C15.3898 14.7482 15.7046 14.8533 15.9671 14.8533C16.1245 14.8533 16.3346 14.8009 16.4921 14.6958C16.912 14.381 16.9643 13.856 16.7018 13.4361L13.8151 9.44745C14.7073 8.29281 14.8124 6.66581 13.9202 5.45878C12.8706 3.98923 10.771 3.67442 9.30155 4.72402C7.832 5.7736 7.51719 7.87324 8.56679 9.34269C9.40662 10.5497 10.9809 10.9696 12.3456 10.497Z" fill="#003366"/>
<path d="M2.32174 21.3612C3.7389 21.8335 5.26074 21.2562 6.10058 20.0491L10.7716 21.571C10.8767 21.6233 10.9814 21.6233 11.0341 21.6233C11.4017 21.6233 11.7689 21.3608 11.874 20.9936C12.0314 20.5214 11.7689 19.9964 11.2966 19.839L6.62556 18.3172C6.67791 16.9 5.78573 15.4832 4.36894 15.0632C2.63698 14.4859 0.747465 15.4308 0.222908 17.2152C-0.407516 18.8945 0.589694 20.7839 2.32174 21.3612Z" fill="#003366"/>
<path d="M24.7842 43.2994V38.4185C24.7842 37.9463 24.3643 37.5264 23.8921 37.5264C23.4198 37.5264 22.9999 37.9463 22.9999 38.4185V43.2994C21.6354 43.6669 20.5854 44.979 20.5854 46.4486C20.5854 48.2857 22.055 49.7551 23.892 49.7551C25.729 49.7551 27.1986 48.2856 27.1986 46.4486C27.1986 44.979 26.2014 43.7193 24.7842 43.2994Z" fill="#003366"/>
<path d="M35.4386 39.2579L32.5519 35.2692C32.237 34.8493 31.712 34.7969 31.2922 35.0594C30.8722 35.3743 30.8199 35.8993 31.0824 36.3191L33.9691 40.3078C33.0769 41.4625 32.9718 43.0894 33.864 44.2965C34.9136 45.766 37.0132 46.0808 38.4827 45.0312C39.9522 43.9817 40.267 41.882 39.2174 40.4126C38.3776 39.2052 36.8033 38.7852 35.4386 39.2579Z" fill="#003366"/>
<path d="M45.4633 28.3937C44.0461 27.9214 42.5243 28.4988 41.6844 29.7058L37.0134 28.1839C36.5411 28.0265 36.0161 28.289 35.8587 28.7613C35.7013 29.2335 35.9638 29.7586 36.4361 29.9159L41.1071 31.4378C41.0548 32.8549 41.947 34.2717 43.3638 34.6917C45.0957 35.269 46.9852 34.3241 47.5098 32.5397C48.1926 30.8604 47.1953 28.971 45.4633 28.3937Z" fill="#003366"/>
<path d="M11.296 29.9159C11.7683 29.7585 12.0308 29.2335 11.8734 28.7613C11.716 28.289 11.191 28.0265 10.7187 28.1839L6.04768 29.7058C5.26058 28.4987 3.7383 27.9214 2.26885 28.3937C0.536884 28.971 -0.40773 30.8081 0.169685 32.5397C0.747026 34.2717 2.58413 35.2163 4.31572 34.6916C5.73287 34.2194 6.6251 32.8545 6.57233 31.4377L11.296 29.9159Z" fill="#003366"/>
<path d="M15.1802 35.3221L12.3462 39.2584C10.9818 38.7334 9.40724 39.1533 8.51502 40.413C7.46544 41.8826 7.78026 43.9817 9.24977 45.0317C10.7193 46.0813 12.8185 45.7664 13.8684 44.2969C14.7606 43.0899 14.6555 41.463 13.7634 40.3082L16.6501 36.3196C16.9649 35.8997 16.8598 35.3751 16.4403 35.0599C16.0724 34.797 15.495 34.9022 15.1802 35.3221Z" fill="#003366"/>
<path d="M36.4883 19.8388C36.0161 19.9963 35.7536 20.5212 35.911 20.9935C36.0161 21.361 36.3833 21.6232 36.7508 21.6232C36.8559 21.6232 36.9606 21.6232 37.0133 21.5708L41.6844 20.049C42.4715 21.256 43.9937 21.8333 45.4632 21.3611C47.1952 20.7837 48.1398 18.9466 47.5624 17.215C46.985 15.4831 45.1479 14.5385 43.4163 15.0631C41.9992 15.5354 41.1069 16.9002 41.1597 18.317L36.4883 19.8388Z" fill="#003366"/>
<path d="M31.8698 14.8003C32.1323 14.8003 32.3948 14.6953 32.6046 14.4328L35.4913 10.4441C36.8557 10.9691 38.4303 10.5492 39.3225 9.28945C40.3721 7.8199 40.0572 5.72074 38.5877 4.67078C37.1182 3.6212 35.019 3.93603 33.9691 5.40553C33.0769 6.61257 33.182 8.23947 34.0741 9.39421L31.1874 13.3829C30.8726 13.8028 30.9777 14.3274 31.3972 14.6426C31.5023 14.748 31.6597 14.8003 31.8698 14.8003Z" fill="#003366"/>
</svg>
