<svg width="86" height="85" viewBox="0 0 86 85" fill="none" xmlns="http://www.w3.org/2000/svg">
<path d="M0.926778 59.5798L6.75212 61.1689C7.2818 63.42 8.20829 65.4058 9.39998 67.3917L6.487 72.5551C6.22246 73.0848 6.22246 73.7467 6.75154 74.1442L10.9884 78.3811C11.3858 78.7785 12.0478 78.9108 12.5775 78.6456L17.7409 75.7326C19.7268 76.9243 21.8456 77.7186 23.9637 78.3805L25.5528 84.0735C25.6851 84.6032 26.2148 85 26.8767 85H32.9672C33.6291 85 34.0266 84.6026 34.2911 84.0735L35.8802 78.3805C38.1313 77.8508 40.2494 76.9243 42.103 75.7326L47.2664 78.6456C47.7961 78.9101 48.4581 78.9101 48.8555 78.3811L53.0924 74.1442C53.4898 73.7468 53.6221 73.0848 53.3569 72.5551L50.4439 67.3917C51.6356 65.4058 52.4299 63.287 53.0918 61.1689L58.7848 59.5798C59.3145 59.4475 59.7113 58.9178 59.7113 58.2559V56.5346H64.345C65.0069 59.5799 67.6547 61.8303 70.8322 61.8303C74.5395 61.8303 77.4524 58.9173 77.4524 55.2101C77.4524 52.0326 75.2014 49.3848 72.1567 48.7228V36.0128C78.9091 35.6154 85.1319 33.3649 85.1319 28.9958C85.1319 23.1704 81.8221 18.0064 76.791 15.4909C78.2472 13.9017 79.1742 11.6515 79.1742 9.26808C79.1742 4.23699 75.0695 0 69.9061 0C64.875 0 60.638 4.10467 60.638 9.13576C59.5793 8.60607 59.9761 9.13576 36.1442 9.00349C35.4823 5.95818 32.8344 3.70775 29.6569 3.70775C25.9497 3.70775 23.0367 6.62073 23.0367 10.328C23.0367 13.5054 25.2878 16.1533 28.3325 16.8152V25.6859H26.6112C25.9492 25.6859 25.4195 26.0833 25.2873 26.6124L23.8311 32.4383C21.58 32.968 19.4619 33.8945 17.6083 35.0862L12.4449 32.0409C11.9152 31.7764 11.2533 31.7764 10.8558 32.3054L6.61893 36.5423C6.22151 36.9397 6.08925 37.6016 6.3544 38.1314L9.26738 43.2948C8.07574 45.2807 7.28144 47.3995 6.61951 49.5176L0.926497 51.1067C0.396814 51.239 7.00102e-07 51.7687 7.00102e-07 52.4306V58.5211C-0.000608798 58.9179 0.396814 59.4476 0.926497 59.5798L0.926778 59.5798ZM74.4082 55.343C74.4082 57.594 72.6869 59.3147 70.4365 59.3147C68.1855 59.3147 66.4648 57.5934 66.4648 55.343C66.4648 53.0919 68.1861 51.3712 70.4365 51.3712C72.6876 51.3712 74.4082 53.2249 74.4082 55.343ZM82.0878 29.2606C82.0878 35.086 57.065 35.086 57.065 29.2606C57.065 24.0972 60.2425 19.463 65.0091 17.6093C66.333 18.4036 67.9221 18.801 69.5106 18.801C71.0997 18.801 72.688 18.4036 74.0121 17.6093C78.911 19.3306 82.0884 23.9644 82.0884 29.2606H82.0878ZM69.5095 2.91304C73.0844 2.91304 76.1297 5.82603 76.1297 9.53326C76.1297 13.2405 73.2167 16.1535 69.5095 16.1535C65.8022 16.1535 62.8893 13.2405 62.8893 9.53326C62.8899 5.82603 65.9352 2.91304 69.5095 2.91304ZM25.6852 10.3275C25.6852 8.07645 27.4065 6.35579 29.657 6.35579C31.908 6.35579 33.6287 8.07708 33.6287 10.3275C33.6287 12.5786 31.9074 14.2992 29.657 14.2992C27.4065 14.2998 25.6852 12.5786 25.6852 10.3275ZM30.9814 16.8154C33.6293 16.2857 35.6151 14.2999 36.1449 11.652C59.9771 11.3875 59.7118 12.1817 60.506 10.99C60.7706 12.7113 61.5654 14.4326 62.7571 15.6237C57.726 18.1392 54.4162 23.4354 54.4162 29.1286C54.4162 34.6894 63.552 36.1456 69.1128 36.1456V48.7233C66.465 49.253 64.4792 51.2389 63.9494 53.8867H59.3158V52.1655C59.3158 51.5035 58.9183 50.9738 58.3893 50.8415L52.6962 49.2524C52.1666 47.0014 51.2401 44.8833 50.0484 43.0296L52.9614 37.8662C53.2259 37.3365 53.2259 36.6746 52.6968 36.2771L48.46 32.0403C48.0626 31.6428 47.4006 31.5106 46.8709 31.7757L41.7075 34.6887C39.7215 33.4971 37.6028 32.7028 35.4847 32.0408L33.8955 26.3478C33.7633 25.8181 33.2336 25.4213 32.5716 25.4213H30.8503L30.8491 16.8153L30.9814 16.8154ZM2.64745 53.3572L8.20829 51.901C8.73798 51.7687 9.00251 51.3713 9.13479 50.8416C9.66508 48.4584 10.5916 46.0756 11.9154 43.9569C12.18 43.5595 12.18 43.0304 11.9154 42.633L9.00247 37.7341L11.7825 34.954L16.6814 37.867C17.0788 38.1316 17.6079 38.1316 18.0053 37.867C20.1234 36.5431 22.3745 35.4838 24.89 35.087C25.4197 34.9547 25.8165 34.5573 25.9494 34.1605L27.4056 28.5996H31.3773L32.8335 34.1605C32.9658 34.6902 33.3632 34.9547 33.8929 35.087C36.4084 35.6167 38.6595 36.5432 40.7776 37.867C41.175 38.1316 41.7041 38.1316 42.1015 37.867L47.0004 34.954L49.7805 37.7341L47.3983 42.633C47.1338 43.0304 47.1338 43.5595 47.3983 43.9569C48.7222 46.075 49.7815 48.3261 50.1784 50.8416C50.3106 51.3713 50.708 51.7681 51.1049 51.901L56.6657 53.3572V57.3289L51.1049 58.7851C50.5752 58.9173 50.3106 59.3148 50.1784 59.8445C49.6487 62.2277 48.7222 64.6111 47.3983 66.7292C47.1338 67.1266 47.1338 67.6557 47.3983 68.0531L50.3113 72.952L47.5313 75.732L42.3672 72.9526C41.9698 72.6881 41.4407 72.6881 41.0433 72.9526C38.9252 74.2765 36.6742 75.2037 34.1586 75.8656C33.6289 75.9979 33.2321 76.3953 33.0992 76.7921L31.6431 82.3529H27.6713L26.2152 76.7921C26.0829 76.2624 25.6855 75.9979 25.1558 75.8656C22.7726 75.3359 20.3892 74.4094 18.2711 73.0856C17.8737 72.821 17.3446 72.821 16.9472 73.0856L12.0482 75.8656L9.26821 73.0856L12.1812 68.1866C12.4457 67.7892 12.4457 67.2602 12.1812 66.8627C10.8573 64.7446 9.79797 62.4936 9.40115 59.978C9.26888 59.4483 8.87147 59.0515 8.47466 58.9186L2.64745 57.3295V53.3572Z" fill="#003366"/>
<path d="M29.6575 70.9645C38.2635 70.9645 45.2804 63.9475 45.2804 55.3416C45.2804 46.7358 38.2634 39.7188 29.6575 39.7188C21.0517 39.7188 14.0347 46.7358 14.0347 55.3416C14.0347 63.9475 21.0517 70.9645 29.6575 70.9645ZM21.1837 65.2715C21.9779 63.5502 23.3018 62.094 24.8909 61.1668C27.8039 62.623 31.5112 62.623 34.4235 61.1668C36.0126 62.0933 37.3365 63.55 38.1307 65.2715C35.8797 67.2574 32.9673 68.4489 29.6569 68.4489C26.4801 68.3167 23.5671 67.125 21.1837 65.2715ZM29.6575 42.2335C36.8067 42.2335 42.6327 48.0589 42.6327 55.2087C42.6327 58.1217 41.5733 60.9017 39.9848 63.0204C38.7932 61.0345 37.0718 59.3132 34.9537 58.2538C34.5563 57.9893 34.0272 58.1215 33.6298 58.2538C31.2466 59.71 27.9368 59.71 25.5534 58.2538C25.156 57.9893 24.7592 57.9893 24.2295 58.2538C22.1114 59.3132 20.3901 60.9017 19.1984 63.0204C17.4771 60.7694 16.5506 58.1215 16.5506 55.2087C16.6822 48.1916 22.5077 42.2335 29.6575 42.2335Z" fill="#003366"/>
<path d="M29.658 57.1949C32.7033 57.1949 35.0865 54.8117 35.0865 51.7664C35.0865 48.7211 32.7033 46.3379 29.658 46.3379C26.6127 46.3379 24.2295 48.7211 24.2295 51.7664C24.2295 54.8123 26.745 57.1949 29.658 57.1949ZM29.658 48.9864C31.2471 48.9864 32.4381 50.178 32.4381 51.7664C32.4381 53.3555 31.2464 54.5464 29.658 54.5464C28.0689 54.5464 26.878 53.3548 26.878 51.7664C26.8774 50.1779 28.2013 48.9864 29.658 48.9864Z" fill="#003366"/>
</svg>
