<svg width="74" height="75" viewBox="0 0 74 75" fill="none" xmlns="http://www.w3.org/2000/svg">
<path fill-rule="evenodd" clip-rule="evenodd" d="M26.0084 59.2746V65.3231H22.0911C21.0449 65.3231 20.0423 65.7378 19.3019 66.4793C18.5604 67.2198 18.1457 68.2222 18.1457 69.2691V73.7906C18.1457 74.4581 18.6876 75 19.355 75H54.4352C55.1032 75 55.6451 74.4581 55.6451 73.7906V69.2691C55.6451 68.2223 55.2298 67.2197 54.4883 66.4793C53.7484 65.7378 52.7454 65.3231 51.6991 65.3231H47.7818V59.2746H67.1601C70.8218 59.2746 73.7902 56.3056 73.7902 52.6445V6.63014C73.7902 2.96839 70.8218 0 67.1601 0H6.63014C2.96839 0 0 2.96839 0 6.63014V52.6445C0 56.3062 2.96839 59.2746 6.63014 59.2746H26.0084ZM53.2263 69.2691V72.5809H20.5654V69.2691C20.5654 68.8648 20.7246 68.4766 21.0116 68.1913C21.0127 68.1897 21.0127 68.1897 21.0138 68.1885C21.2997 67.9021 21.6879 67.7423 22.0916 67.7423H51.7004C52.1041 67.7423 52.4928 67.9021 52.7782 68.1885L52.7804 68.1908C53.0674 68.4766 53.2272 68.8648 53.2272 69.2691H53.2263ZM28.4277 59.2746V65.3231H45.3626V59.2746H28.4277ZM71.3715 48.6608V52.6445C71.3715 54.9703 69.4871 56.8553 67.1607 56.8553H6.6307C4.30429 56.8553 2.41984 54.9703 2.41984 52.6445V48.6608H71.3715ZM55.0113 54.0909H57.4323L57.4312 51.6716H55.0131L55.0113 54.0909ZM59.8505 54.0909H62.2709L62.2698 51.6716H59.8516L59.8505 54.0909ZM64.689 54.0909H67.1094L67.1083 51.6716H64.6902L64.689 54.0909ZM71.3711 46.2415H2.4197V6.63C2.4197 4.30415 4.30415 2.41913 6.63056 2.41913H67.1605C69.4869 2.41913 71.3714 4.30359 71.3714 6.63L71.3711 46.2415ZM34.0571 9.23471L23.9427 17.5607L21.2525 19.1151C19.5747 20.0828 18.3505 21.6786 17.8501 23.5488C17.3491 25.4201 17.6101 27.4135 18.5795 29.0902C18.5795 29.0902 18.7924 29.4579 18.5806 29.0913C19.5483 30.7695 21.1435 31.9933 23.0137 32.4942C23.7956 32.7033 24.5975 32.7796 25.3887 32.7276L31.4038 43.1467C32.1504 44.4385 33.8026 44.8826 35.096 44.136L38.5217 42.1586C39.6055 41.5315 39.9782 40.1441 39.3517 39.0591L38.3945 37.403C37.8321 36.4281 36.6565 36.0288 35.6369 36.4126L31.9121 29.9622L43.4925 25.6237C43.8774 26.1208 44.4154 26.4813 45.0287 26.6456H45.0315C45.7703 26.843 46.5577 26.7401 47.2219 26.3564C47.9186 25.9549 48.7509 25.4744 49.4465 25.0718C50.1106 24.6897 50.5934 24.0593 50.793 23.32V23.3178C50.9915 22.5774 50.8875 21.7899 50.5038 21.1259C48.5092 17.6698 43.5037 9.00148 41.5086 5.5457C41.1254 4.88158 40.495 4.39772 39.7545 4.19921C39.7534 4.19921 39.7534 4.19921 39.7523 4.19811C39.013 4.00236 38.2255 4.10521 37.5625 4.48732C36.8657 4.88989 36.0335 5.37041 35.3367 5.77297C34.6737 6.15562 34.1898 6.78545 33.9919 7.52478C33.9919 7.52589 33.9902 7.52589 33.9902 7.527C33.8393 8.09434 33.8647 8.68989 34.0571 9.23507L34.0571 9.23471ZM29.8004 31.0464L28.5567 31.7652C28.3073 31.9079 28.0535 32.0362 27.792 32.1485L33.4582 41.9614C33.5489 42.1201 33.7524 42.1743 33.9106 42.0825L37.2466 40.1566L36.3928 38.6786L35.7796 39.0319C35.2122 39.3598 34.4878 39.1646 34.16 38.5973L29.8004 31.0464ZM25.8228 30.2855C26.3625 30.1843 26.8862 29.9919 27.3701 29.711L29.119 28.7023L24.1871 20.1594L22.4381 21.1686C21.3056 21.8228 20.4783 22.8995 20.141 24.1635C19.802 25.4265 19.979 26.773 20.6237 27.8893C20.627 27.8943 20.6298 27.9004 20.6331 27.9048C20.6359 27.9087 20.637 27.9137 20.6392 27.9159C21.2939 29.0445 22.3678 29.8673 23.6285 30.2046C24.3397 30.3943 25.0773 30.4225 25.789 30.2915C25.7996 30.2904 25.8117 30.2883 25.8228 30.2855ZM26.1507 18.8168L31.264 27.6727L42.266 23.5515L35.2205 11.3496L26.1507 18.8168ZM39.4171 6.75259C41.4117 10.2087 46.4177 18.877 48.4123 22.3328C48.4753 22.4417 48.4919 22.5711 48.4604 22.6922C48.4266 22.8133 48.3481 22.9172 48.2392 22.9803C47.5424 23.3829 46.7102 23.8634 46.0134 24.2649C45.9045 24.3279 45.7751 24.3445 45.654 24.313C45.5329 24.2792 45.43 24.2007 45.3676 24.0918C43.3713 20.6357 38.367 11.9674 36.3712 8.51018C36.3082 8.40235 36.291 8.27296 36.3237 8.15187C36.3563 8.02966 36.4354 7.92681 36.5438 7.86433C37.2405 7.4612 38.0733 6.98123 38.7701 6.57812C38.8785 6.51508 39.0084 6.4996 39.129 6.53112C39.2512 6.56485 39.354 6.64337 39.4171 6.75231V6.75259ZM50.1082 15.6146L54.6918 16.8427C55.3376 17.0158 56.0017 16.632 56.1732 15.9873C56.3463 15.3425 55.9631 14.6784 55.3183 14.5053L50.7347 13.2766C50.0899 13.1035 49.4258 13.4867 49.2527 14.1331C49.0796 14.7779 49.4634 15.442 50.1082 15.6146ZM50.9454 11.9981L55.0556 9.62585C55.634 9.29185 55.8325 8.55031 55.4985 7.97185C55.1645 7.394 54.4241 7.19548 53.8445 7.52947L49.7354 9.90288C49.157 10.2363 48.9591 10.9767 49.2925 11.5552C49.6265 12.1336 50.3669 12.3316 50.9454 11.9981ZM48.5234 9.44564L49.7516 4.86204C49.9241 4.21728 49.5409 3.55316 48.8961 3.38005C48.2502 3.20696 47.5861 3.59073 47.413 4.2355L46.1854 8.82022C46.0123 9.46499 46.3955 10.1291 47.0403 10.3022C47.6861 10.4748 48.3503 10.0915 48.5234 9.44564Z" fill="#003366"/>
</svg>
